<?xml version="1.0" standalone="no"?>
<!DOCTYPE svg PUBLIC "-//W3C//DTD SVG 20010904//EN"
 "http://www.w3.org/TR/2001/REC-SVG-20010904/DTD/svg10.dtd">
<svg version="1.0" xmlns="http://www.w3.org/2000/svg"
 width="1024.000000pt" height="1024.000000pt" viewBox="0 0 1024.000000 1024.000000"
 preserveAspectRatio="xMidYMid meet">

<g transform="translate(0.000000,1024.000000) scale(0.100000,-0.100000)"
fill="#30694B" stroke="none">
<path d="M4870 8468 c-61 -140 -20 -267 105 -329 36 -17 68 -30 71 -27 2 3 7
50 11 105 5 85 3 105 -14 144 -24 54 -75 115 -114 135 -38 19 -38 19 -59 -28z"/>
<path d="M5271 8479 c-86 -62 -123 -164 -104 -289 6 -39 14 -74 16 -77 9 -9
102 45 134 79 42 44 63 96 63 158 0 55 -32 145 -55 154 -8 3 -32 -8 -54 -25z"/>
<path d="M4413 8329 c3 -35 9 -73 12 -85 6 -19 2 -22 -55 -27 -51 -6 -91 -18
-108 -32 -6 -5 19 -48 61 -103 22 -29 69 -72 106 -96 63 -42 169 -86 208 -86
34 0 91 -20 128 -46 l38 -25 -5 119 c-4 110 -6 123 -39 193 -62 130 -188 230
-311 246 l-41 6 6 -64z"/>
<path d="M5726 8374 c-149 -46 -273 -196 -296 -359 -10 -75 -13 -185 -5 -185
3 0 23 12 45 26 23 15 81 36 139 50 164 39 250 94 333 218 32 46 37 60 27 67
-20 12 -104 29 -143 29 l-33 0 13 52 c8 29 14 67 14 85 0 39 -14 41 -94 17z"/>
<path d="M3931 8193 c-19 -49 -32 -136 -25 -183 21 -158 82 -253 211 -328 l52
-31 8 67 c4 37 8 114 8 172 0 95 -3 110 -27 156 -38 72 -73 111 -132 144 -63
37 -81 37 -95 3z"/>
<path d="M6212 8199 c-56 -28 -127 -111 -153 -179 -20 -51 -21 -68 -15 -210 4
-85 9 -156 11 -158 10 -10 148 93 183 137 77 97 105 255 66 377 -19 61 -28 64
-92 33z"/>
<path d="M3651 8029 c-18 -53 -13 -168 10 -219 28 -63 63 -96 142 -136 l67
-34 11 27 c7 16 12 62 12 103 1 60 -4 86 -25 130 -29 63 -75 113 -130 141 -54
28 -74 25 -87 -12z"/>
<path d="M6492 8039 c-65 -33 -119 -101 -143 -181 -19 -61 -20 -78 -11 -140 6
-38 13 -72 16 -75 11 -11 119 53 161 94 53 52 75 114 74 202 -2 122 -18 139
-97 100z"/>
<path d="M5285 8038 c-65 -36 -123 -82 -143 -112 l-24 -35 -31 41 c-32 41
-136 108 -169 108 -23 0 -41 -61 -36 -121 7 -70 49 -131 148 -214 l85 -72 49
41 c156 130 186 173 186 267 0 53 -16 100 -35 105 -5 2 -19 -2 -30 -8z"/>
<path d="M6860 7903 c-62 -21 -105 -55 -137 -111 -26 -44 -28 -54 -27 -154 0
-59 3 -110 6 -114 9 -8 103 42 142 77 73 64 104 154 86 251 -6 29 -14 55 -18
59 -4 4 -27 1 -52 -8z"/>
<path d="M3303 7883 c-4 -16 -7 -57 -7 -93 1 -77 24 -131 79 -179 33 -29 143
-86 151 -78 2 1 7 28 12 60 21 133 -30 245 -132 293 -69 32 -94 31 -103 -3z"/>
<path d="M4311 7875 c-11 -14 -24 -48 -30 -76 -28 -128 -4 -208 91 -301 37
-38 75 -68 83 -68 23 0 49 103 49 195 0 103 -27 168 -96 230 -28 25 -56 45
-63 45 -8 0 -23 -11 -34 -25z"/>
<path d="M5833 7867 c-85 -66 -118 -147 -110 -267 4 -59 26 -146 43 -168 5 -7
80 47 111 79 52 55 73 112 73 205 0 66 -4 89 -26 132 -14 29 -31 52 -37 52 -7
0 -31 -15 -54 -33z"/>
<path d="M3047 7713 c-15 -27 -29 -124 -24 -172 9 -98 68 -180 167 -231 l40
-21 12 28 c16 40 22 179 9 223 -17 58 -66 117 -123 150 -54 30 -73 36 -81 23z"/>
<path d="M7098 7691 c-113 -72 -160 -200 -124 -341 9 -35 18 -66 20 -68 2 -2
24 9 48 23 110 69 158 146 158 258 0 89 -17 157 -39 157 -9 0 -38 -13 -63 -29z"/>
<path d="M4645 7624 c13 -121 52 -210 122 -276 39 -37 123 -77 178 -85 39 -5
51 -11 64 -36 9 -16 36 -61 60 -99 51 -81 43 -83 113 37 48 81 62 95 97 95 38
0 143 53 189 95 74 67 104 138 116 274 l6 64 -68 -6 c-115 -9 -176 -39 -262
-126 -51 -51 -86 -98 -108 -143 -18 -38 -36 -68 -40 -68 -4 0 -20 31 -37 68
-21 47 -50 87 -96 134 -83 85 -165 126 -269 135 l-72 6 7 -69z"/>
<path d="M3662 7592 c-4 -9 -7 -66 -7 -127 0 -122 9 -148 69 -209 47 -47 147
-100 157 -84 28 45 22 223 -9 285 -27 53 -97 114 -156 135 -44 16 -47 16 -54
0z"/>
<path d="M6492 7579 c-122 -61 -169 -153 -159 -316 3 -52 8 -97 11 -100 8 -8
127 59 158 90 60 61 73 101 72 225 0 62 -5 117 -10 122 -7 7 -31 0 -72 -21z"/>
<path d="M4034 7464 c-12 -42 -15 -84 -12 -163 5 -121 20 -161 91 -238 51 -55
188 -139 198 -120 4 6 12 55 18 109 25 203 -39 350 -191 437 -75 44 -84 41
-104 -25z"/>
<path d="M6102 7495 c-68 -31 -147 -111 -178 -180 -15 -33 -27 -82 -31 -124
-6 -67 11 -215 27 -241 6 -9 23 -4 70 21 87 46 154 110 187 177 24 49 28 71
31 157 3 111 -14 208 -38 212 -8 2 -39 -8 -68 -22z"/>
<path d="M3314 7464 c-16 -108 19 -216 85 -264 47 -33 113 -53 123 -38 13 21
9 166 -5 201 -28 67 -87 114 -174 141 -20 6 -22 2 -29 -40z"/>
<path d="M6846 7484 c-113 -41 -164 -136 -149 -277 7 -67 13 -69 93 -29 97 49
139 138 125 262 -8 65 -9 66 -69 44z"/>
<path d="M2670 7415 c-27 -71 -2 -186 53 -243 42 -44 147 -98 157 -82 4 7 11
42 14 79 14 138 -53 233 -186 266 -24 6 -29 3 -38 -20z"/>
<path d="M7475 7424 c-50 -18 -102 -67 -126 -119 -28 -60 -24 -215 6 -215 6 0
39 14 73 31 103 51 154 151 135 265 -10 56 -23 62 -88 38z"/>
<path d="M4527 7348 c-42 -52 -54 -75 -73 -136 -30 -99 -11 -221 46 -299 27
-37 111 -103 131 -103 4 0 10 21 14 48 3 26 15 81 26 124 23 92 24 196 4 266
-17 56 -72 135 -97 140 -9 2 -31 -15 -51 -40z"/>
<path d="M5611 7351 c-71 -89 -91 -180 -67 -306 21 -111 46 -229 51 -233 8 -9
76 42 113 83 102 116 94 331 -18 458 -17 20 -36 37 -40 37 -5 0 -22 -18 -39
-39z"/>
<path d="M3002 7213 c-32 -4 -33 -6 -26 -36 33 -155 214 -260 391 -227 37 7
71 14 75 17 10 5 -26 64 -74 117 -97 111 -204 149 -366 129z"/>
<path d="M7051 7205 c-71 -16 -117 -43 -173 -100 -36 -37 -94 -132 -86 -141 3
-2 31 -9 64 -15 157 -29 313 43 375 175 16 34 29 66 29 72 0 25 -111 30 -209
9z"/>
<path d="M4771 7108 c-46 -147 -4 -306 106 -397 53 -44 150 -94 158 -81 4 6 7
61 8 123 0 94 -3 121 -22 169 -30 76 -79 138 -145 182 -69 46 -91 46 -105 4z"/>
<path d="M5369 7111 c-97 -61 -158 -144 -179 -242 -13 -58 -6 -249 9 -249 18
0 135 79 178 120 65 63 86 115 91 225 4 97 -12 168 -38 173 -8 1 -36 -11 -61
-27z"/>
<path d="M3593 7039 c5 -54 14 -90 36 -131 l29 -57 -42 5 c-60 9 -190 -21
-225 -52 -2 -1 17 -29 42 -61 92 -120 219 -173 364 -152 45 6 81 5 128 -5 47
-10 65 -10 65 -2 0 12 -62 118 -91 155 -13 16 -19 40 -19 76 0 73 -24 144 -64
191 -37 43 -121 87 -190 100 l-39 7 6 -74z"/>
<path d="M6536 7085 c-122 -50 -181 -130 -193 -260 -4 -53 -13 -80 -33 -110
-16 -22 -42 -65 -59 -94 l-32 -54 28 7 c15 4 98 11 183 15 175 10 209 18 277
65 41 28 131 128 133 147 0 9 -68 37 -123 50 -26 6 -69 9 -96 6 l-47 -6 33 66
c27 54 33 77 33 129 0 60 -1 64 -22 64 -13 0 -50 -11 -82 -25z"/>
<path d="M7469 7020 c-48 -8 -121 -37 -152 -62 -17 -13 -14 -17 42 -57 33 -23
82 -49 107 -58 80 -27 185 -2 258 63 27 23 27 26 12 43 -24 27 -123 68 -176
73 -25 3 -66 2 -91 -2z"/>
<path d="M2599 7010 c-43 -13 -119 -61 -119 -75 0 -23 69 -72 126 -90 37 -12
69 -15 99 -11 48 8 144 53 189 90 l28 24 -43 25 c-24 14 -62 30 -84 36 -46 12
-157 13 -196 1z"/>
<path d="M4056 6818 c30 -203 148 -336 323 -364 34 -5 41 -12 57 -48 26 -57
99 -133 157 -162 41 -21 48 -22 53 -9 11 28 -15 221 -37 281 -73 200 -283 343
-502 344 l-57 0 6 -42z"/>
<path d="M5986 6845 c-89 -25 -178 -77 -246 -145 -72 -71 -112 -138 -133 -221
-16 -60 -33 -259 -22 -259 3 0 31 12 62 27 64 32 125 96 148 158 16 40 20 44
61 50 57 8 149 56 196 102 50 48 96 138 113 220 8 38 15 71 15 76 0 12 -141 6
-194 -8z"/>
<path d="M7143 6819 c-94 -9 -179 -55 -249 -135 -31 -35 -55 -67 -52 -70 3 -2
32 -14 64 -26 47 -18 81 -22 164 -23 143 0 201 23 288 113 34 36 62 69 62 74
0 15 -108 60 -163 67 -29 3 -80 4 -114 0z"/>
<path d="M2925 6813 c-52 -14 -115 -47 -115 -60 0 -8 30 -45 68 -82 91 -92
149 -114 282 -109 71 3 109 10 150 28 30 13 58 26 62 29 4 4 -19 37 -52 73
-87 96 -144 122 -275 125 -55 1 -109 -1 -120 -4z"/>
<path d="M2268 6773 c-36 -6 -36 -26 1 -107 71 -156 180 -219 419 -241 67 -6
72 -5 72 13 0 37 -74 167 -122 215 -58 58 -149 102 -238 116 -66 11 -83 11
-132 4z"/>
<path d="M7812 6769 c-79 -13 -161 -56 -217 -114 -48 -49 -106 -149 -121 -209
l-7 -29 79 7 c167 15 271 52 340 121 44 45 89 129 99 186 6 32 4 37 -17 42
-30 9 -90 7 -156 -4z"/>
<path d="M4777 6563 c-15 -4 -17 -12 -12 -51 11 -79 35 -161 85 -297 53 -147
98 -310 87 -321 -4 -4 -62 20 -130 54 -67 33 -174 85 -238 115 -97 47 -124 65
-170 115 -33 35 -65 83 -78 116 -25 60 -28 61 -98 35 -27 -10 -27 -9 -9 -74
48 -175 142 -283 326 -375 192 -96 306 -226 356 -405 22 -80 30 -377 14 -534
-6 -64 -13 -118 -15 -119 -2 -2 -28 9 -57 24 -65 35 -211 179 -341 336 -54 64
-128 144 -164 178 -120 110 -295 201 -472 246 -107 28 -271 44 -271 26 0 -32
195 -173 319 -229 236 -108 435 -312 521 -535 33 -85 57 -175 48 -183 -3 -3
-24 2 -47 10 -52 18 -338 80 -441 94 -41 6 -169 18 -285 25 -317 22 -420 51
-525 152 l-59 56 -35 -29 c-20 -15 -36 -30 -36 -34 0 -11 58 -96 91 -133 18
-21 53 -51 77 -66 l44 -27 -113 -72 c-165 -105 -282 -160 -377 -176 -83 -15
-83 -15 -275 21 -84 15 -108 16 -169 6 -38 -7 -93 -23 -122 -37 -56 -26 -150
-111 -140 -126 3 -5 29 -23 57 -39 60 -34 180 -64 237 -58 25 2 38 0 36 -7
-22 -48 -37 -123 -34 -167 l3 -53 40 3 c55 4 162 56 208 100 39 37 79 105 91
153 5 24 14 29 83 44 117 26 201 59 383 151 248 125 391 164 595 164 182 0
329 -36 500 -123 111 -56 171 -99 254 -180 107 -105 158 -193 199 -346 24 -91
26 -110 26 -336 0 -244 -6 -311 -45 -466 -71 -287 -243 -515 -476 -633 -82
-41 -208 -72 -468 -116 -132 -23 -319 -57 -415 -76 -166 -33 -479 -110 -489
-119 -8 -9 159 -1 904 45 257 16 509 27 514 23 6 -4 -26 -28 -101 -75 -107
-66 -223 -100 -563 -163 l-40 -8 29 -8 c58 -16 364 -32 526 -26 293 9 541 77
710 193 27 19 54 34 59 34 5 0 31 -15 59 -33 102 -70 316 -145 492 -174 127
-21 678 -29 907 -14 192 13 275 22 269 28 -2 3 -35 9 -73 13 -631 81 -745 106
-941 204 -165 83 -263 175 -326 306 -28 59 -31 74 -31 160 0 92 24 210 43 210
5 0 14 -27 20 -60 17 -78 88 -220 152 -297 87 -107 240 -200 406 -247 156 -43
239 -51 904 -86 212 -11 432 -22 490 -26 58 -3 103 -4 100 -1 -22 23 -416 114
-745 172 -430 75 -555 110 -691 194 -230 142 -369 376 -421 711 -25 157 -25
537 1 645 20 89 68 200 115 268 108 157 309 298 520 363 77 24 231 44 336 44
198 -1 337 -42 603 -177 175 -90 267 -125 375 -143 43 -8 67 -17 67 -25 0 -61
102 -190 180 -230 53 -26 145 -50 160 -40 15 9 12 114 -5 171 -8 27 -15 50
-15 52 0 1 15 2 33 2 65 1 170 30 235 66 l66 37 -61 58 c-113 106 -232 129
-443 86 -111 -23 -133 -25 -199 -16 -41 6 -104 22 -140 35 -68 26 -213 108
-314 177 l-57 40 37 25 c56 36 120 101 154 153 16 25 29 49 29 52 0 3 -16 18
-35 33 l-35 27 -58 -55 c-110 -105 -201 -131 -533 -153 -246 -16 -384 -37
-606 -90 -80 -19 -149 -35 -153 -35 -14 0 29 139 69 226 54 115 104 189 185
273 88 91 143 128 321 219 137 70 246 146 293 204 l24 28 -44 0 c-100 0 -323
-55 -443 -109 -157 -72 -280 -175 -455 -381 -213 -253 -328 -432 -362 -565
-12 -49 -13 -45 -24 135 -18 271 -17 629 1 714 29 137 116 276 222 355 32 24
99 63 148 88 166 84 226 137 285 252 22 44 53 188 44 203 -3 4 -25 8 -50 8
-34 0 -46 -4 -50 -17 -16 -55 -63 -128 -110 -173 -41 -39 -88 -67 -192 -116
-75 -35 -181 -87 -234 -114 -53 -28 -99 -50 -101 -50 -16 0 43 203 112 381 24
63 47 147 56 204 18 110 16 115 -46 115 l-37 0 -27 -86 c-22 -73 -34 -94 -74
-134 -36 -36 -59 -50 -99 -60 -134 -32 -236 41 -288 205 -21 68 -23 70 -55 72
-19 0 -42 -1 -52 -4z"/>
<path d="M3343 6496 c-44 -14 -133 -63 -133 -72 0 -12 48 -47 99 -71 88 -42
182 -25 266 48 19 17 35 35 35 39 0 5 -26 21 -57 35 -67 32 -151 41 -210 21z"/>
<path d="M6712 6495 c-53 -15 -102 -41 -102 -55 0 -12 66 -67 101 -85 42 -22
116 -29 164 -16 47 12 127 68 123 85 -6 20 -132 75 -183 81 -29 3 -72 -1 -103
-10z"/>
<path d="M2913 6386 c3 -50 13 -89 30 -123 24 -46 92 -119 133 -141 17 -9 173
-62 183 -62 2 0 1 35 -1 78 -7 108 -58 202 -143 260 -38 25 -145 62 -181 62
l-27 0 6 -74z"/>
<path d="M3721 6450 c-24 -5 -46 -12 -49 -15 -10 -10 46 -113 84 -154 59 -67
128 -94 249 -99 l103 -5 -9 43 c-21 91 -78 168 -152 205 -60 29 -156 39 -226
25z"/>
<path d="M6347 6449 c-57 -13 -111 -44 -142 -81 -32 -38 -72 -119 -81 -166 -6
-31 -5 -32 27 -32 130 1 248 41 313 106 38 39 102 151 92 162 -19 18 -149 25
-209 11z"/>
<path d="M7185 6437 c-79 -29 -172 -119 -197 -192 -17 -49 -36 -185 -26 -185
20 0 171 56 205 76 92 53 143 147 143 261 l0 63 -32 -1 c-18 0 -60 -10 -93
-22z"/>
<path d="M2262 6345 c-72 -16 -187 -75 -187 -95 0 -22 129 -116 193 -141 44
-18 77 -23 147 -23 83 0 98 4 193 42 56 23 112 42 124 42 20 0 18 4 -17 41
-114 116 -296 170 -453 134z"/>
<path d="M7765 6346 c-39 -7 -98 -27 -131 -44 -68 -34 -166 -124 -143 -130 8
-2 59 -21 114 -42 55 -21 123 -41 150 -45 113 -15 270 39 365 125 36 34 42 43
30 51 -124 82 -251 110 -385 85z"/>
<path d="M3428 6213 c-6 -15 -12 -73 -12 -128 -1 -116 17 -167 79 -229 37 -38
145 -96 176 -96 22 0 29 29 29 132 0 64 -6 102 -20 142 -33 87 -124 172 -217
200 -19 6 -25 2 -35 -21z"/>
<path d="M6724 6215 c-60 -27 -125 -87 -153 -143 -29 -57 -43 -153 -35 -242
l6 -78 27 8 c15 4 47 18 71 30 118 60 171 137 178 260 5 84 -13 190 -31 189
-7 0 -35 -11 -63 -24z"/>
<path d="M3833 6054 c-3 -10 -1 -44 6 -77 42 -202 188 -318 443 -353 l46 -6
-5 43 c-23 189 -146 333 -323 382 -30 9 -79 18 -108 22 -44 5 -53 3 -59 -11z"/>
<path d="M6306 6059 c-223 -37 -361 -172 -395 -388 -9 -60 -13 -59 105 -36 87
17 187 60 245 106 79 62 139 186 139 285 0 49 0 49 -94 33z"/>
<path d="M2643 6040 c-23 -5 -56 -16 -75 -25 -33 -17 -98 -73 -98 -85 0 -4 23
-19 51 -34 84 -47 201 -35 268 27 25 23 75 97 69 102 -3 4 -156 26 -166 24 -4
-1 -26 -5 -49 -9z"/>
<path d="M7428 6038 c-32 -6 -58 -13 -58 -17 0 -4 14 -28 31 -54 62 -94 184
-123 300 -71 33 15 59 30 59 35 0 13 -76 68 -122 89 -56 25 -136 31 -210 18z"/>
<path d="M2964 5930 c9 -75 27 -129 67 -193 17 -27 25 -47 17 -44 -149 65
-208 75 -321 53 -74 -14 -167 -51 -167 -66 0 -17 127 -143 162 -161 130 -66
310 -53 433 31 l45 31 47 -41 c106 -93 261 -142 393 -124 l65 9 -105 77 c-128
93 -161 127 -238 243 -62 94 -113 148 -172 182 -44 26 -163 63 -202 63 l-31 0
7 -60z"/>
<path d="M7161 5974 c-131 -35 -222 -109 -301 -243 -54 -94 -99 -138 -228
-226 -56 -38 -102 -73 -102 -76 0 -12 116 -18 180 -10 89 12 165 43 246 99
l68 48 79 -40 79 -41 122 0 c117 0 124 1 189 33 47 24 82 50 119 93 29 33 53
65 53 71 0 16 -79 45 -169 64 -88 19 -186 6 -269 -36 l-58 -29 22 35 c41 67
61 117 71 181 5 35 7 71 4 79 -7 17 -35 17 -105 -2z"/>
<path d="M2076 5952 c-27 -10 -51 -23 -54 -30 -6 -19 86 -109 136 -134 60 -29
163 -30 250 -4 34 11 62 22 62 25 0 21 -101 117 -144 137 -64 30 -176 32 -250
6z"/>
<path d="M7928 5960 c-48 -14 -92 -47 -137 -102 l-43 -53 33 -13 c92 -38 207
-34 296 9 46 22 139 118 126 130 -32 30 -209 49 -275 29z"/>
<path d="M4474 5645 c-19 -130 20 -250 106 -328 52 -47 155 -106 165 -95 4 4
8 53 9 110 1 92 -2 109 -26 160 -45 97 -129 171 -220 193 -25 6 -27 5 -34 -40z"/>
<path d="M5659 5660 c-31 -16 -77 -52 -102 -80 -64 -71 -82 -130 -80 -258 1
-57 4 -106 6 -109 11 -10 145 78 186 122 72 78 97 160 86 281 -9 86 -12 88
-96 44z"/>
<path d="M2140 5595 c-70 -20 -152 -69 -197 -119 l-36 -39 29 -24 c60 -48 130
-67 249 -68 103 0 114 2 175 31 36 18 93 56 127 85 72 63 71 67 -27 112 -55
25 -80 30 -165 33 -70 3 -117 -1 -155 -11z"/>
<path d="M7833 5595 c-62 -17 -153 -62 -153 -74 0 -17 145 -134 190 -154 55
-25 194 -34 268 -18 57 12 124 41 162 71 l25 19 -49 46 c-27 25 -82 62 -123
82 -66 33 -82 36 -171 39 -65 3 -114 -1 -149 -11z"/>
<path d="M2554 5383 c-21 -4 -22 -5 -8 -64 8 -33 23 -78 35 -100 28 -55 95
-126 141 -150 44 -23 186 -45 200 -31 6 6 5 35 -2 76 -14 75 -67 168 -118 205
-68 48 -182 78 -248 64z"/>
<path d="M3022 5383 c-29 -6 -25 -29 18 -118 33 -68 84 -125 146 -161 49 -29
157 -54 233 -54 l54 0 -7 31 c-11 57 -66 157 -111 204 -64 65 -140 98 -235
101 -41 1 -86 0 -98 -3z"/>
<path d="M7023 5376 c-108 -35 -179 -101 -232 -217 -47 -102 -47 -103 26 -107
63 -3 164 18 216 44 40 21 106 83 132 124 28 44 68 151 60 159 -13 12 -161 10
-202 -3z"/>
<path d="M7542 5374 c-67 -18 -84 -27 -134 -72 -59 -53 -108 -164 -108 -245
l0 -29 63 7 c173 19 290 134 313 308 l7 47 -44 -1 c-24 0 -68 -7 -97 -15z"/>
<path d="M3602 5250 c-18 -4 -36 -11 -40 -14 -3 -4 6 -32 22 -62 68 -130 183
-213 307 -222 77 -5 229 5 249 18 16 10 -11 58 -77 137 -86 103 -202 154 -347
152 -44 -1 -96 -5 -114 -9z"/>
<path d="M6359 5236 c-81 -28 -145 -71 -196 -131 -42 -49 -90 -131 -82 -139
12 -12 201 -22 258 -15 127 18 235 97 297 220 l33 67 -50 11 c-84 18 -186 13
-260 -13z"/>
<path d="M2094 5186 c-28 -7 -71 -24 -95 -38 -53 -31 -152 -133 -147 -151 3
-6 35 -28 72 -47 60 -30 78 -35 162 -38 88 -4 94 -6 80 -21 -21 -24 -63 -119
-71 -162 -6 -34 -5 -36 23 -42 39 -8 146 9 186 30 90 45 147 116 173 218 10
36 22 65 28 65 5 0 28 5 50 11 l39 11 -34 30 c-151 129 -305 173 -466 134z"/>
<path d="M7891 5184 c-30 -8 -75 -26 -100 -39 -54 -30 -163 -120 -154 -129 3
-3 28 -9 55 -12 29 -4 48 -12 48 -19 0 -7 9 -42 20 -78 24 -78 88 -154 155
-187 50 -24 154 -42 197 -33 26 5 28 9 23 37 -3 17 -23 66 -44 109 l-39 77 62
0 c95 0 249 51 263 87 7 18 -75 103 -137 143 -86 55 -237 74 -349 44z"/>
<path d="M2662 4868 c-50 -17 -125 -89 -160 -157 l-32 -60 57 -11 c89 -19 227
-8 293 22 65 30 170 117 167 138 -1 8 -29 28 -61 45 -51 26 -72 30 -145 32
-47 1 -101 -3 -119 -9z"/>
<path d="M7315 4859 c-27 -10 -61 -28 -75 -39 l-25 -20 45 -40 c112 -101 177
-130 287 -130 89 0 203 20 203 35 0 7 -18 40 -41 74 -42 63 -98 109 -158 129
-54 19 -178 14 -236 -9z"/>
<path d="M3686 4489 c-60 -9 -161 -52 -205 -87 l-23 -19 38 -30 c134 -105 304
-115 475 -28 53 27 118 69 119 77 0 16 -137 71 -209 84 -85 15 -110 15 -195 3z"/>
<path d="M6345 4486 c-74 -15 -120 -32 -179 -67 l-36 -21 45 -29 c140 -89 254
-120 367 -100 70 12 149 48 197 89 l34 29 -48 33 c-94 65 -248 91 -380 66z"/>
<path d="M3252 4310 c-141 -77 -218 -144 -248 -217 -14 -32 -17 -34 -57 -31
-40 3 -42 5 -45 38 -5 62 -8 64 -53 38 -60 -33 -144 -121 -174 -181 -49 -101
-56 -224 -19 -333 9 -27 18 -51 19 -52 2 -2 31 11 66 29 115 62 186 156 209
279 6 29 11 54 13 55 7 6 167 31 167 26 0 -3 -7 -31 -15 -61 -15 -57 -21 -206
-7 -213 11 -7 111 21 160 44 88 43 169 153 180 245 5 43 5 44 86 83 79 38 126
74 113 87 -11 11 -156 22 -222 17 l-62 -6 -7 59 c-11 99 -17 134 -24 134 -4 0
-40 -18 -80 -40z"/>
<path d="M6886 4308 c-3 -24 -8 -67 -12 -95 l-7 -53 -112 0 c-118 0 -175 -7
-175 -21 0 -15 93 -79 141 -96 47 -17 47 -18 63 -82 36 -147 151 -251 296
-268 l50 -6 0 91 c0 57 -6 109 -16 138 -8 25 -14 47 -12 49 2 1 40 -4 85 -12
l81 -15 17 -73 c18 -84 73 -177 126 -218 19 -13 57 -36 85 -51 l52 -25 21 50
c43 99 36 232 -18 337 -37 73 -170 202 -208 202 -9 0 -13 -14 -13 -42 0 -57
-8 -66 -52 -60 -33 4 -41 10 -68 58 -34 60 -103 119 -213 182 -106 60 -104 60
-111 10z"/>
<path d="M4118 4266 c-25 -7 -58 -20 -72 -30 l-27 -17 67 -74 c74 -83 133
-118 229 -136 53 -10 201 -6 213 5 8 8 -45 110 -77 150 -80 100 -202 137 -333
102z"/>
<path d="M5935 4266 c-66 -21 -101 -43 -142 -90 -42 -47 -99 -154 -88 -164 3
-4 57 -7 119 -7 110 0 115 1 188 38 60 29 89 52 138 106 l61 70 -23 15 c-35
22 -126 46 -172 45 -23 0 -59 -6 -81 -13z"/>
<path d="M3792 4084 c-212 -106 -319 -288 -296 -502 l7 -64 39 6 c109 18 225
79 283 150 65 80 88 148 93 271 4 108 -5 176 -24 182 -5 2 -51 -18 -102 -43z"/>
<path d="M6313 4083 c-46 -283 112 -525 365 -559 l50 -6 7 74 c20 208 -86 385
-293 491 -51 26 -99 47 -107 47 -9 0 -17 -18 -22 -47z"/>
<path d="M4044 3955 c-14 -100 26 -220 91 -269 40 -31 105 -56 145 -56 24 0
28 5 34 39 7 45 -7 128 -29 175 -32 67 -120 133 -202 150 -31 7 -32 7 -39 -39z"/>
<path d="M6119 3984 c-120 -36 -194 -126 -206 -247 -3 -36 -3 -77 1 -92 6 -24
10 -26 39 -20 134 29 221 119 227 235 4 74 0 140 -7 139 -5 0 -29 -7 -54 -15z"/>
<path d="M4370 2983 c-424 -18 -1046 -127 -1494 -263 -369 -112 -769 -271
-870 -346 -21 -16 -21 -16 4 -10 72 19 554 111 764 146 280 46 748 110 1021
140 105 12 218 28 252 35 85 20 187 73 251 130 58 52 147 162 135 167 -5 2
-33 2 -63 1z"/>
<path d="M5800 2974 c0 -13 102 -132 144 -167 127 -106 209 -129 636 -177 527
-60 1249 -176 1583 -254 31 -8 57 -10 57 -6 0 10 -256 131 -390 183 -406 158
-828 276 -1245 346 -323 55 -785 99 -785 75z"/>
</g>
</svg>
